nColumns=19
nRows=112
DataType=double
version=3
OpenSimVersion=4.1
endheader
time	ground_force_calcn_r_vx	ground_force_calcn_r_vy	ground_force_calcn_r_vz	ground_force_calcn_r_px	ground_force_calcn_r_py	ground_force_calcn_r_pz	ground_force_calcn_r_mx	ground_force_calcn_r_my	ground_force_calcn_r_mz	ground_force_calcn_l_vx	ground_force_calcn_l_vy	ground_force_calcn_l_vz	ground_force_calcn_l_px	ground_force_calcn_l_py	ground_force_calcn_l_pz	ground_force_calcn_l_mx	ground_force_calcn_l_my	ground_force_calcn_l_mz
3.35	0	0	0	0	0	0	0	0	0	-282.894	1537.4	29.5588	0.973756	0	-0.391424	0.0346309	-0.188203	-0.00361848
3.36	0	0	0	0	0	0	0	0	0	-235.156	1657.64	87.0521	0.931933	0	-0.391755	-0.105974	0.74702	0.0392303
3.37	0	0	0	0	0	0	0	0	0	-167.208	1720.86	86.4166	0.889714	0	-0.392265	-0.166413	1.71268	0.086006
3.38	0	0	0	0	0	0	0	0	0	-90.6748	1718.14	60.189	0.847203	0	-0.392779	-0.124099	2.35148	0.0823757
3.39	0	0	0	0	0	0	0	0	0	-10.2688	1660.59	65.1315	0.803219	0	-0.392644	-0.0176193	2.84925	0.111753
3.4	0	0	0	0	0	0	0	0	0	72.4339	1551.28	74.0127	0.757668	0	-0.391381	0.153742	3.29262	0.157094
3.41	0	0	0	0	0	0	0	0	0	147.006	1386.18	47.3875	0.712012	0	-0.388929	0.353529	3.33357	0.113961
3.42	0	0	0	0	0	0	0	0	0	196.869	1172.85	9.29849	0.668188	0	-0.385495	0.446095	2.65761	0.0210699
3.43	0	0	0	0	0	0	0	0	0	214.447	933.161	-6.92192	0.627069	0	-0.381347	0.40288	1.75312	-0.0130041
3.44	0	0	0	0	0	0	0	0	0	204.396	688.891	-10.5777	0.587157	0	-0.376692	0.49842	1.67986	-0.0257936
3.45	0	0	0	0	0	0	0	0	0	177.783	457.614	-18.8275	0.543682	0	-0.371496	0.990014	2.5483	-0.104844
3.46	0	0	0	0	0	0	0	0	0	140.289	258.98	-26.7896	0.488241	0	-0.365456	1.43218	2.64387	-0.27349
3.47	0	0	0	0	0	0	0	0	0	91.7457	118.828	-24.9118	0.407079	0	-0.360104	0.567293	0.734754	-0.154037
3.48	0	0	0	0	0	0	0	0	0	0	0	0	0	0	0	0	0	0
3.49	0	0	0	0	0	0	0	0	0	0	0	0	0	0	0	0	0	0
3.5	0	0	0	0	0	0	0	0	0	0	0	0	0	0	0	0	0	0
3.51	0	0	0	0	0	0	0	0	0	0	0	0	0	0	0	0	0	0
3.52	0	0	0	0	0	0	0	0	0	0	0	0	0	0	0	0	0	0
3.53	0	0	0	0	0	0	0	0	0	0	0	0	0	0	0	0	0	0
3.54	0	0	0	0	0	0	0	0	0	0	0	0	0	0	0	0	0	0
3.55	0	0	0	0	0	0	0	0	0	0	0	0	0	0	0	0	0	0
3.56	0	0	0	0	0	0	0	0	0	0	0	0	0	0	0	0	0	0
3.57	0	0	0	0	0	0	0	0	0	0	0	0	0	0	0	0	0	0
3.58	-1.17254	59.0258	-5.49768	0.987447	0	-0.369729	0.00767609	-0.386416	0.0359909	0	0	0	0	0	0	0	0	0
3.59	-13.967	194.411	-16.646	0.99548	0	-0.301913	0.0209741	-0.291944	0.0249971	0	0	0	0	0	0	0	0	0
3.6	-34.4574	490.122	-34.9709	0.982894	0	-0.309346	0.0101519	-0.144401	0.0103032	0	0	0	0	0	0	0	0	0
3.61	-74.8443	920.025	-25.1601	0.971756	0	-0.310552	-0.0936476	1.15116	-0.0314811	0	0	0	0	0	0	0	0	0
3.62	-127.342	1293.06	33.3696	0.959225	0	-0.310536	-0.243651	2.4741	0.0638481	0	0	0	0	0	0	0	0	0
3.63	-171.133	1484.22	68.9288	0.942714	0	-0.309813	-0.257077	2.2296	0.103545	0	0	0	0	0	0	0	0	0
3.64	-193.082	1566.47	20.9724	0.919293	0	-0.308162	-0.0177815	0.14426	0.00193141	0	0	0	0	0	0	0	0	0
3.65	-179.187	1632.22	-33.6405	0.887508	0	-0.305371	0.295009	-2.68726	0.055385	0	0	0	0	0	0	0	0	0
3.66	-136.004	1696.31	-32.8277	0.849593	0	-0.301935	0.388937	-4.85101	0.0938789	0	0	0	0	0	0	0	0	0
3.67	-73.7247	1722.48	-33.4951	0.80958	0	-0.298955	0.241878	-5.65115	0.109892	0	0	0	0	0	0	0	0	0
3.68	-5.61948	1686.48	-66.2701	0.769905	0	-0.297193	0.0182592	-5.47981	0.215329	0	0	0	0	0	0	0	0	0
3.69	58.6207	1592.49	-73.0859	0.730528	0	-0.296608	-0.198403	-5.38982	0.24736	0	0	0	0	0	0	0	0	0
3.7	121.526	1442.52	-37.7761	0.690129	0	-0.296879	-0.512473	-6.08305	0.159301	0	0	0	0	0	0	0	0	0
3.71	182.678	1235.03	-8.99126	0.647801	0	-0.297858	-1.06104	-7.17338	0.0522235	0	0	0	0	0	0	0	0	0
3.72	217.597	988.968	-1.46954	0.603948	0	-0.299299	-1.6638	-7.56189	0.0112364	0	0	0	0	0	0	0	0	0
3.73	208.332	735.841	4.67711	0.559784	0	-0.300451	-1.85396	-6.54827	-0.0416218	0	0	0	0	0	0	0	0	0
3.74	172.917	500.566	11.4771	0.515012	0	-0.300213	-1.50977	-4.37054	-0.100209	0	0	0	0	0	0	0	0	0
3.75	133.63	297.322	10.9163	0.464175	0	-0.296578	-0.868221	-1.93176	-0.0709254	0	0	0	0	0	0	0	0	0
3.76	91.5922	143.771	2.39733	0.389606	0	-0.280169	-0.130686	-0.205136	-0.00342057	0	0	0	0	0	0	0	0	0
3.77	46.4546	56.2771	-6.20208	0.193319	0	-0.148172	0.374594	0.4538	-0.0500115	0	0	0	0	0	0	0	0	0
3.78	0	0	0	0	0	0	0	0	0	0	0	0	0	0	0	0	0	0
3.79	0	0	0	0	0	0	0	0	0	0	0	0	0	0	0	0	0	0
3.8	0	0	0	0	0	0	0	0	0	0	0	0	0	0	0	0	0	0
3.81	0	0	0	0	0	0	0	0	0	0	0	0	0	0	0	0	0	0
3.82	0	0	0	0	0	0	0	0	0	0	0	0	0	0	0	0	0	0
3.83	0	0	0	0	0	0	0	0	0	0	0	0	0	0	0	0	0	0
3.84	0	0	0	0	0	0	0	0	0	0	0	0	0	0	0	0	0	0
3.85	0	0	0	0	0	0	0	0	0	0	0	0	0	0	0	0	0	0
3.86	0	0	0	0	0	0	0	0	0	-38.5044	103.938	-16.9105	1.04283	0	-0.380052	0.145341	-0.392331	0.0638313
3.87	0	0	0	0	0	0	0	0	0	-61.8929	269.833	-21.673	1.01751	0	-0.375579	0.637486	-2.77923	0.223229
3.88	0	0	0	0	0	0	0	0	0	-71.707	546.676	0.997444	1.00719	0	-0.374637	0.390599	-2.97783	-0.00543324
3.89	0	0	0	0	0	0	0	0	0	-91.9338	843.652	43.6895	0.997847	0	-0.374051	0.192266	-1.76437	-0.09137
3.9	0	0	0	0	0	0	0	0	0	-146.29	1028.42	66.6606	0.987425	0	-0.3745	0.144456	-1.01553	-0.0658252
3.91	0	0	0	0	0	0	0	0	0	-211.222	1110.96	32.1386	0.972147	0	-0.375759	0.253677	-1.33426	-0.0385984
3.92	0	0	0	0	0	0	0	0	0	-251.103	1205.7	-11.1787	0.947654	0	-0.37683	0.441547	-2.12015	0.019657
3.93	0	0	0	0	0	0	0	0	0	-245.776	1357.27	12.4046	0.913669	0	-0.377066	0.481289	-2.65786	-0.0242913
3.94	0	0	0	0	0	0	0	0	0	-205.975	1516.8	62.1418	0.87412	0	-0.37696	0.352	-2.59213	-0.106197
3.95	0	0	0	0	0	0	0	0	0	-145.687	1618.3	64.2306	0.832517	0	-0.377253	0.170067	-1.88912	-0.0749796
3.96	0	0	0	0	0	0	0	0	0	-72.409	1648.8	37.9714	0.789955	0	-0.3778	0.0316148	-0.719888	-0.0165788
3.97	0	0	0	0	0	0	0	0	0	7.3224	1625.91	39.5203	0.746355	0	-0.377845	0.00229709	0.510058	0.0123978
3.98	0	0	0	0	0	0	0	0	0	85.1008	1551.92	54.8408	0.701783	0	-0.376881	0.0731432	1.33385	0.047135
3.99	0	0	0	0	0	0	0	0	0	155.155	1419.59	42.0653	0.656804	0	-0.374912	0.169457	1.55045	0.045943
4	0	0	0	0	0	0	0	0	0	208.654	1232.29	12.281	0.612341	0	-0.372146	0.221853	1.31024	0.0130579
4.01	0	0	0	0	0	0	0	0	0	236.923	1009.68	-4.82153	0.569466	0	-0.368735	0.244261	1.04095	-0.00497088
4.02	0	0	0	0	0	0	0	0	0	234.391	777.635	-9.38946	0.52859	0	-0.364784	0.3835	1.27233	-0.0153626
4.03	0	0	0	0	0	0	0	0	0	206.099	552.36	-12.6289	0.487666	0	-0.360396	0.791128	2.12028	-0.0484771
4.04	0	0	0	0	0	0	0	0	0	165.98	346.442	-15.9893	0.439749	0	-0.355515	1.31386	2.74235	-0.126567
4.05	0	0	0	0	0	0	0	0	0	119.408	183.623	-16.4395	0.368456	0	-0.35	1.2818	1.97113	-0.176472
4.06	0	0	0	0	0	0	0	0	0	68.4791	82.4545	-10.0189	0.234854	0	-0.339234	0.153461	0.18478	-0.0224522
4.07	0	0	0	0	0	0	0	0	0	0	0	0	0	0	0	0	0	0
4.08	0	0	0	0	0	0	0	0	0	0	0	0	0	0	0	0	0	0
4.09	0	0	0	0	0	0	0	0	0	0	0	0	0	0	0	0	0	0
4.1	0	0	0	0	0	0	0	0	0	0	0	0	0	0	0	0	0	0
4.11	0	0	0	0	0	0	0	0	0	0	0	0	0	0	0	0	0	0
4.12	0	0	0	0	0	0	0	0	0	0	0	0	0	0	0	0	0	0
4.13	0	0	0	0	0	0	0	0	0	0	0	0	0	0	0	0	0	0
4.14	-28.1551	72.7903	-10.0344	1.1571	0	-0.161608	0.20763	-0.536794	0.073999	0	0	0	0	0	0	0	0	0
4.15	-52.7683	203.596	-20.2917	1.0009	0	-0.291358	0.121586	-0.469114	0.0467551	0	0	0	0	0	0	0	0	0
4.16	-68.0722	458.804	-20.1408	0.982385	0	-0.295685	-0.0262109	0.176661	-0.00775513	0	0	0	0	0	0	0	0	0
4.17	-81.7954	793.417	-1.16606	0.969066	0	-0.295674	-0.136932	1.32825	-0.00195208	0	0	0	0	0	0	0	0	0
4.18	-125.457	1062.23	32.2258	0.956359	0	-0.294433	-0.2325	1.96855	0.0597216	0	0	0	0	0	0	0	0	0
4.19	-193.251	1194.4	38.1276	0.940898	0	-0.292298	-0.261106	1.61379	0.0515153	0	0	0	0	0	0	0	0	0
4.2	-243.39	1276.16	-10.8223	0.918687	0	-0.289131	-0.135287	0.709351	-0.00601555	0	0	0	0	0	0	0	0	0
4.21	-242.151	1384.94	-54.6079	0.887868	0	-0.28506	0.026749	-0.152986	0.00603222	0	0	0	0	0	0	0	0	0
4.22	-204.545	1506.92	-48.1861	0.850785	0	-0.280692	0.111083	-0.818367	0.0261685	0	0	0	0	0	0	0	0	0
4.23	-153.931	1589.96	-44.7148	0.810925	0	-0.276781	0.133668	-1.38066	0.0388287	0	0	0	0	0	0	0	0	0
4.24	-94.3274	1612.96	-79.1914	0.769612	0	-0.273677	0.111031	-1.89858	0.0932144	0	0	0	0	0	0	0	0	0
4.25	-26.8888	1589.24	-101.042	0.726581	0	-0.271311	0.0419828	-2.48136	0.157762	0	0	0	0	0	0	0	0	0
4.26	45.9647	1530.43	-82.8889	0.681765	0	-0.269654	-0.101807	-3.38975	0.18359	0	0	0	0	0	0	0	0	0
4.27	114.994	1431.27	-62.7493	0.635918	0	-0.268919	-0.381367	-4.74666	0.208102	0	0	0	0	0	0	0	0	0
4.28	170.863	1283.07	-52.4524	0.590336	0	-0.269268	-0.82852	-6.22167	0.254344	0	0	0	0	0	0	0	0	0
4.29	209.217	1092.02	-33.6597	0.546471	0	-0.270473	-1.35715	-7.0837	0.218344	0	0	0	0	0	0	0	0	0
4.3	221.462	873.9	-9.22171	0.505175	0	-0.271848	-1.69115	-6.67337	0.0704198	0	0	0	0	0	0	0	0	0
4.31	202.822	643.153	8.37209	0.465596	0	-0.272454	-1.59213	-5.04866	-0.0657197	0	0	0	0	0	0	0	0	0
4.32	166.09	421.087	14.2742	0.424059	0	-0.271369	-1.2506	-3.17064	-0.10748	0	0	0	0	0	0	0	0	0
4.33	122.208	236.217	9.49798	0.371454	0	-0.267119	-1.138	-2.19965	-0.0884447	0	0	0	0	0	0	0	0	0
4.34	74.4518	109.962	3.82034	0.279775	0	-0.250474	-1.48636	-2.19528	-0.0762696	0	0	0	0	0	0	0	0	0
4.35	0	0	0	0	0	0	0	0	0	0	0	0	0	0	0	0	0	0
4.36	0	0	0	0	0	0	0	0	0	0	0	0	0	0	0	0	0	0
4.37	0	0	0	0	0	0	0	0	0	0	0	0	0	0	0	0	0	0
4.38	0	0	0	0	0	0	0	0	0	0	0	0	0	0	0	0	0	0
4.39	0	0	0	0	0	0	0	0	0	0	0	0	0	0	0	0	0	0
4.4	0	0	0	0	0	0	0	0	0	0	0	0	0	0	0	0	0	0
4.41	0	0	0	0	0	0	0	0	0	0	0	0	0	0	0	0	0	0
4.42	0	0	0	0	0	0	0	0	0	0	0	0	0	0	0	0	0	0
4.43	0	0	0	0	0	0	0	0	0	-26.4446	92.4405	-13.163	1.01009	0	-0.352197	-0.139286	0.486894	-0.0693309
4.44	0	0	0	0	0	0	0	0	0	-25.6258	225.716	-21.6851	0.947344	0	-0.366226	0.146139	-1.28721	0.123666
4.45	0	0	0	0	0	0	0	0	0	-15.581	452.354	-22.0739	0.927051	0	-0.368315	0.0620295	-1.80086	0.0878783
4.46	0	0	0	0	0	0	0	0	0	-31.6854	720.337	-3.93366	0.914559	0	-0.368802	0.062994	-1.43211	0.00782054
